<svg xmlns="http://www.w3.org/2000/svg" xmlns:xlink="http://www.w3.org/1999/xlink" width="500" zoomAndPan="magnify" viewBox="0 0 375 374.999991" height="500" preserveAspectRatio="xMidYMid meet" version="1.0"><defs><g/><clipPath id="0837bf7a71"><rect x="0" width="239" y="0" height="340"/></clipPath></defs><g transform="matrix(1, 0, 0, 1, 58, 0)"><g clip-path="url(#0837bf7a71)"><g fill="#d9d9d9" fill-opacity="1"><g transform="translate(0.659241, 274.537878)"><g><path d="M 85.984375 -167.640625 C 99.472656 -167.640625 111.195312 -165.546875 121.15625 -161.359375 C 131.113281 -157.171875 138.8125 -150.863281 144.25 -142.4375 C 149.695312 -134.019531 152.421875 -123.53125 152.421875 -110.96875 L 152.421875 0 L 110.96875 0 L 110.96875 -17.03125 C 101.101562 -9.125 91.890625 -3.726562 83.328125 -0.84375 C 74.765625 2.039062 66.625 3.484375 58.90625 3.484375 C 48.570312 3.484375 39.585938 1.671875 31.953125 -1.953125 C 24.328125 -5.578125 18.421875 -10.832031 14.234375 -17.71875 C 10.046875 -24.613281 7.953125 -32.898438 7.953125 -42.578125 C 7.953125 -50.578125 9.394531 -57.578125 12.28125 -63.578125 C 15.164062 -69.578125 19.210938 -74.8125 24.421875 -79.28125 C 29.640625 -83.75 35.785156 -87.609375 42.859375 -90.859375 C 49.929688 -94.117188 57.609375 -96.914062 65.890625 -99.25 L 110.96875 -112.09375 C 110.59375 -118.695312 108.101562 -123.742188 103.5 -127.234375 C 98.894531 -130.722656 92.59375 -132.46875 84.59375 -132.46875 C 78.351562 -132.46875 72 -131.488281 65.53125 -129.53125 C 59.0625 -127.582031 52.847656 -124.929688 46.890625 -121.578125 C 40.941406 -118.234375 35.6875 -114.421875 31.125 -110.140625 L 11.03125 -141.265625 C 22.382812 -150.472656 34.476562 -157.171875 47.3125 -161.359375 C 60.15625 -165.546875 73.046875 -167.640625 85.984375 -167.640625 Z M 72.578125 -29.734375 C 79.097656 -29.734375 85.566406 -31.382812 91.984375 -34.6875 C 98.410156 -37.988281 104.738281 -42.335938 110.96875 -47.734375 L 110.96875 -78.453125 L 77.046875 -67.5625 C 69.421875 -65.144531 63.742188 -62.351562 60.015625 -59.1875 C 56.296875 -56.019531 54.4375 -51.691406 54.4375 -46.203125 C 54.4375 -41.085938 56.039062 -37.0625 59.25 -34.125 C 62.46875 -31.195312 66.910156 -29.734375 72.578125 -29.734375 Z M 72.578125 -29.734375 "/></g></g></g><g fill="#d9d9d9" fill-opacity="1"><g transform="translate(150.514879, 274.537878)"><g><path d="M 28.75 0 L 28.75 -50.8125 L 79.140625 -50.8125 L 79.140625 0 Z M 28.75 0 "/></g></g></g></g></g></svg>